<?xml version="1.0" encoding="UTF-8"?>
<svg version="1.1" xmlns="http://www.w3.org/2000/svg" width="2048" height="407">
<path d="M0 0 C3.15121025 2.90907366 5.22995518 5.79924929 7.328125 9.53125 C8.26809326 11.19075684 8.26809326 11.19075684 9.22705078 12.88378906 C9.90140088 14.08917386 10.57571634 15.29457804 11.25 16.5 C11.95876904 17.75528035 12.66825439 19.01015651 13.37841797 20.26464844 C14.85441411 22.87340311 16.32731088 25.48386953 17.79785156 28.09570312 C20.88617453 33.57677165 24.00448175 39.04066926 27.12634277 44.50268555 C27.7949993 45.6726097 28.46337257 46.84269578 29.13146973 48.01293945 C33.71097426 56.03415581 38.33446807 64.02849922 43 72 C48.00736075 80.55554751 52.96154808 89.14024155 57.875 97.75 C58.20788025 98.3332605 58.5407605 98.916521 58.88372803 99.51745605 C61.59800516 104.27436898 64.30942831 109.03290718 67.02075195 113.79150391 C69.38751432 117.94508974 71.75538194 122.09804261 74.125 126.25 C74.62456207 127.12537415 74.62456207 127.12537415 75.13421631 128.01843262 C79.71285351 136.03778468 84.33550365 144.03026862 89 152 C94.00736075 160.55554751 98.96154808 169.14024155 103.875 177.75 C104.37432037 178.62489075 104.37432037 178.62489075 104.88372803 179.51745605 C107.59800516 184.27436898 110.30942831 189.03290718 113.02075195 193.79150391 C115.38751432 197.94508974 117.75538194 202.09804261 120.125 206.25 C120.62456207 207.12537415 120.62456207 207.12537415 121.13421631 208.01843262 C125.71285351 216.03778468 130.33550365 224.03026862 135 232 C140.00736075 240.55554751 144.96154808 249.14024155 149.875 257.75 C150.20788025 258.3332605 150.5407605 258.916521 150.88372803 259.51745605 C153.59800516 264.27436898 156.30942831 269.03290718 159.02075195 273.79150391 C161.38751432 277.94508974 163.75538194 282.09804261 166.125 286.25 C166.62456207 287.12537415 166.62456207 287.12537415 167.13421631 288.01843262 C171.71285351 296.03778468 176.33550365 304.03026862 181 312 C186.00736075 320.55554751 190.96154808 329.14024155 195.875 337.75 C196.20788025 338.3332605 196.5407605 338.916521 196.88372803 339.51745605 C199.59800516 344.27436898 202.30942831 349.03290718 205.02075195 353.79150391 C207.05299789 357.35802501 209.08600071 360.92411245 211.12039185 364.4894104 C211.78678394 365.6572717 212.45302491 366.82521925 213.11911011 367.99325562 C216.74170025 374.34366945 220.38586767 380.6804485 224.08203125 386.98828125 C224.73091309 388.0959082 225.37979492 389.20353516 226.04833984 390.34472656 C227.27893421 392.44077641 228.51220041 394.53526062 229.74853516 396.62792969 C230.29429199 397.55637695 230.84004883 398.48482422 231.40234375 399.44140625 C231.88179443 400.25295166 232.36124512 401.06449707 232.85522461 401.90063477 C234 404 234 404 235 407 C80.56 407 -73.88 407 -233 407 C-231.3586084 402.07582519 -229.53058035 398.22386168 -226.875 393.875 C-222.58311718 386.71515423 -218.40407603 379.49578782 -214.27593994 372.24053955 C-208.90218147 362.79642039 -203.49101746 353.376617 -198 344 C-192.99240718 335.44458971 -188.03845061 326.85975615 -183.125 318.25 C-182.79211975 317.6667395 -182.4592395 317.083479 -182.11627197 316.48254395 C-179.74261615 312.32258771 -177.371073 308.16142877 -175 304 C-172.29310624 299.24917808 -169.58529654 294.49888166 -166.875 289.75 C-166.37543793 288.87462585 -166.37543793 288.87462585 -165.86578369 287.98156738 C-160.72566113 278.97878977 -155.52066225 270.01538309 -150.28417969 261.06835938 C-145.85328433 253.48755027 -141.47715221 245.87620249 -137.125 238.25 C-136.79211975 237.6667395 -136.4592395 237.083479 -136.11627197 236.48254395 C-133.74261615 232.32258771 -131.371073 228.16142877 -129 224 C-126.29310624 219.24917808 -123.58529654 214.49888166 -120.875 209.75 C-120.37543793 208.87462585 -120.37543793 208.87462585 -119.86578369 207.98156738 C-114.72566113 198.97878977 -109.52066225 190.01538309 -104.28417969 181.06835938 C-99.85328433 173.48755027 -95.47715221 165.87620249 -91.125 158.25 C-90.79211975 157.6667395 -90.4592395 157.083479 -90.11627197 156.48254395 C-87.74261615 152.32258771 -85.371073 148.16142877 -83 144 C-80.29310624 139.24917808 -77.58529654 134.49888166 -74.875 129.75 C-74.54195862 129.16641724 -74.20891724 128.58283447 -73.86578369 127.98156738 C-68.72566113 118.97878977 -63.52066225 110.01538309 -58.28417969 101.06835938 C-53.85328433 93.48755027 -49.47715221 85.87620249 -45.125 78.25 C-44.79211975 77.6667395 -44.4592395 77.083479 -44.11627197 76.48254395 C-41.74261615 72.32258771 -39.371073 68.16142877 -37 64 C-27.62611117 47.5480516 -18.20251101 31.12796497 -8.63232422 14.7890625 C-5.7491414 9.8627268 -2.87490277 4.93117093 0 0 Z " fill="#FFFFFF" transform="translate(233,0)"/>
<path d="M0 0 C28.05 0 56.1 0 85 0 C104.53600959 37.92284214 104.53600959 37.92284214 113.40991211 55.72216797 C114.4304817 57.765238 115.45124037 59.80821358 116.47216797 61.85110474 C118.62839079 66.16665261 120.783383 70.48281161 122.93733025 74.7994957 C126.35423937 81.64711334 129.77439857 88.4931047 133.19496155 95.33889771 C137.99580114 104.94784528 142.7955215 114.5573507 147.59399414 124.16748047 C148.04666102 125.07405595 148.04666102 125.07405595 148.50847269 125.99894609 C150.65152043 130.29094477 152.79451375 134.58297062 154.9375 138.875 C157.39782487 143.80259307 159.85818212 148.73016997 162.31860352 153.65771484 C162.62211772 154.26557138 162.92563192 154.87342792 163.23834353 155.49970435 C168.32479826 165.68636598 173.41288239 175.8722127 178.50205046 186.05751908 C181.89224976 192.84285133 185.28050713 199.62914838 188.66719329 206.41623473 C190.77943291 210.64824169 192.89337904 214.87939458 195.00775909 219.11033249 C195.97666292 221.04999054 196.94488427 222.98998971 197.91231728 224.93038177 C202.68974175 234.51163104 207.51128543 244.06746092 212.4690094 253.55691528 C212.88043338 254.34928679 213.29185736 255.1416583 213.71574873 255.95804107 C215.58888775 259.51922883 217.42360258 262.88263668 220 266 C220.49584784 265.00738254 220.99169567 264.01476507 221.5025692 262.99206829 C233.60424886 238.76644475 245.70827458 214.5419945 257.81471825 190.31875134 C263.66940208 178.60424172 269.52334119 166.8893611 275.37548828 155.17358398 C280.48010268 144.95434386 285.58615406 134.7358232 290.69388545 124.51814061 C293.39479085 119.1150336 296.09500715 113.71158484 298.79349899 108.30727196 C301.34109909 103.20520949 303.89064085 98.10412178 306.44158173 93.00372887 C307.37014385 91.14633282 308.2980372 89.28860224 309.22515488 87.43048477 C314.63621 76.58685843 320.15760458 65.81183748 325.83525181 55.10520077 C328.78710255 49.5306206 331.60814425 43.89346268 334.41015625 38.2421875 C334.94853622 37.16164093 335.4869162 36.08109436 336.04161072 34.96780396 C337.71726107 31.60453704 339.39022274 28.23994519 341.0625 24.875 C343.30110512 20.37125627 345.54234624 15.86883841 347.78515625 11.3671875 C348.2954689 10.33826385 348.80578156 9.30934021 349.33155823 8.24923706 C349.79972458 7.30960114 350.26789093 6.36996521 350.75024414 5.40185547 C351.1619838 4.57313934 351.57372345 3.74442322 351.99794006 2.89059448 C353 1 353 1 354 0 C356.64738089 -0.09511266 359.26859001 -0.12555635 361.91625977 -0.11352539 C362.74545929 -0.11367142 363.57465881 -0.11381744 364.4289856 -0.1139679 C367.18315198 -0.11326851 369.93725161 -0.10547493 372.69140625 -0.09765625 C374.59569766 -0.09579216 376.49998955 -0.09436822 378.40428162 -0.09336853 C383.42667963 -0.08954263 388.44904892 -0.07971173 393.47143555 -0.06866455 C398.5922812 -0.05845198 403.71313148 -0.05387124 408.83398438 -0.04882812 C418.88933557 -0.03808953 428.9446654 -0.02101224 439 0 C437.64776921 4.17902911 436.12030855 7.90217032 434.015625 11.76171875 C433.4172583 12.86692871 432.8188916 13.97213867 432.20239258 15.11083984 C431.7257164 15.98394806 431.7257164 15.98394806 431.2394104 16.87469482 C429.53328778 20.00066552 427.84309649 23.13522821 426.15234375 26.26953125 C425.80503708 26.91269287 425.45773041 27.55585449 425.09989929 28.21850586 C421.59140108 34.73004025 418.19708725 41.29821256 414.8125 47.875 C410.19965454 56.825115 405.46820138 65.69498168 400.60864258 74.51318359 C396.10225176 82.72892663 391.81329144 91.05206272 387.53100586 99.38574219 C383.47590277 107.2726565 379.34878274 115.11050422 375.0625 122.875 C369.84249864 132.33358557 364.88885671 141.91751055 359.95925903 151.52923584 C355.2946443 160.61909239 350.51833189 169.63027276 345.578125 178.57421875 C341.23710911 186.47440089 337.11331752 194.47985704 333 202.5 C327.96644668 212.31423998 322.83884808 222.0578039 317.5078125 231.71484375 C313.37089212 239.24158568 309.42497368 246.86155893 305.5 254.5 C301.12374211 263.016691 296.69056032 271.49138254 292.0625 279.875 C287.2098857 288.66788422 282.58279333 297.56475721 278 306.5 C272.95090738 316.34422494 267.80980118 326.11970457 262.46386719 335.80712891 C256.07969067 347.41810382 250.07079826 359.22265138 244 371 C227.83 371 211.66 371 195 371 C188.52478095 359.2340532 182.15006537 347.43896489 176 335.5 C171.78519514 327.3184554 167.50561525 319.18488293 163.0625 311.125 C158.05427257 302.03749054 153.27284021 292.84225694 148.53100586 283.61425781 C144.47590277 275.7273435 140.34878274 267.88949578 136.0625 260.125 C130.84249864 250.66641443 125.88885671 241.08248945 120.95925903 231.47076416 C116.74285191 223.25432226 112.4656398 215.08477096 108 207 C103.16664416 198.24950137 98.56149482 189.39399868 94 180.5 C88.96644668 170.68576002 83.83884808 160.9421961 78.5078125 151.28515625 C74.03025915 143.13866431 69.77858401 134.88049394 65.53045654 126.61315918 C61.47553539 118.72661281 57.34858425 110.88913622 53.0625 103.125 C47.84249864 93.66641443 42.88885671 84.08248945 37.95925903 74.47076416 C33.30109762 65.39348308 28.53360233 56.39346366 23.59790039 47.46313477 C18.31767752 37.85759434 13.33313896 28.09958217 8.34179688 18.34179688 C8.00954605 17.69356461 7.67729523 17.04533234 7.3349762 16.37745667 C6.42801401 14.60719409 5.52337707 12.83574077 4.61889648 11.06420898 C3.05755579 8.01552887 3.05755579 8.01552887 1.28930664 5.28149414 C0 3 0 3 0 0 Z " fill="#FFFFFF" transform="translate(460,18)"/>
<path d="M0 0 C5.30010118 4.72253082 9.78377988 9.82643589 13.95727539 15.57641602 C14.55185547 16.3853833 14.55185547 16.3853833 15.15844727 17.21069336 C39.89037705 51.2122739 42.95727539 88.31043823 42.95727539 129.57641602 C-25.02272461 129.57641602 -93.00272461 129.57641602 -163.04272461 129.57641602 C-158.10332355 156.05676891 -158.10332355 156.05676891 -146.04272461 178.57641602 C-145.30022461 179.62829102 -144.55772461 180.68016602 -143.79272461 181.76391602 C-130.12479093 195.74248455 -112.21024317 201.346181 -93.03442383 201.60375977 C-75.87650395 201.36820117 -59.83166716 194.7477306 -47.39819336 183.00610352 C-42.61484158 178.07203252 -38.31709526 172.90715551 -34.9309082 166.91674805 C-34.30780762 165.81443848 -33.68470703 164.71212891 -33.04272461 163.57641602 C-17.07073449 164.21615002 -1.1617903 165.35059132 14.76977539 166.63891602 C17.13107917 166.82737231 19.49240721 167.01552501 21.85375977 167.20336914 C27.55521484 167.65756588 33.25636336 168.11545574 38.95727539 168.57641602 C38.18948925 173.81692732 36.71826867 177.89906073 34.45727539 182.63891602 C33.92324097 183.75882935 33.92324097 183.75882935 33.37841797 184.90136719 C18.15090699 215.9503583 -10.47676369 236.9913751 -42.48022461 248.38891602 C-82.82265723 261.03421214 -129.04359384 258.64723215 -166.99975586 239.65161133 C-197.25638013 223.72783345 -219.97015064 196.30395179 -230.37084961 163.80932617 C-243.11348062 121.46045146 -240.79453811 73.87854798 -219.94750977 34.50805664 C-203.56403189 4.6830257 -176.27750038 -17.37010512 -143.67553711 -27.17749023 C-93.68376662 -41.15750885 -39.9029204 -34.46877626 0 0 Z M-144.16772461 40.35375977 C-154.15127425 52.1884259 -162.04272461 68.88092963 -162.04272461 84.57641602 C-118.48272461 84.57641602 -74.92272461 84.57641602 -30.04272461 84.57641602 C-30.91450869 75.85857524 -32.39800011 68.7949685 -35.04272461 60.57641602 C-35.33018555 59.67536133 -35.61764648 58.77430664 -35.91381836 57.84594727 C-41.33952937 42.67807071 -53.0148292 31.81053248 -67.04272461 24.57641602 C-93.57967418 14.22343569 -124.24173131 19.50377887 -144.16772461 40.35375977 Z " fill="#FFFFFF" transform="translate(1091.042724609375,139.423583984375)"/>
<path d="M0 0 C28.58150961 25.50533049 40.43915418 61.65277229 44.15087891 98.77001953 C44.15087891 109.33001953 44.15087891 119.89001953 44.15087891 130.77001953 C-23.82912109 130.77001953 -91.80912109 130.77001953 -161.84912109 130.77001953 C-156.54295285 157.30086073 -151.55723741 178.37229214 -128.84912109 193.77001953 C-111.55040903 203.41787693 -91.2120149 204.94764855 -72.28662109 199.80126953 C-53.53140005 193.71404867 -41.38762533 181.48120221 -31.84912109 164.77001953 C-15.87713097 165.40975354 0.03181322 166.54419484 15.96337891 167.83251953 C18.32468269 168.02097582 20.68601072 168.20912852 23.04736328 168.39697266 C28.74881835 168.8511694 34.44996688 169.30905926 40.15087891 169.77001953 C38.22475087 179.28152107 38.22475087 179.28152107 36.11962891 183.34814453 C35.72670654 184.10981934 35.33378418 184.87149414 34.92895508 185.65625 C34.29630737 186.82631592 34.29630737 186.82631592 33.65087891 188.02001953 C33.20655518 188.84775879 32.76223145 189.67549805 32.30444336 190.52832031 C15.8071729 220.50801343 -13.26871796 241.31828908 -45.84912109 250.77001953 C-86.00247824 262.07952933 -130.60710707 259.06235408 -167.84912109 239.77001953 C-198.98558972 222.30961715 -221.16541024 192.93057408 -230.84912109 158.77001953 C-233.82562521 147.01271208 -235.98360292 135.27459838 -236.05224609 123.12548828 C-236.05794617 122.31622391 -236.06364624 121.50695953 -236.06951904 120.673172 C-236.07891383 118.96466351 -236.08548089 117.25613735 -236.08935547 115.54760742 C-236.09895241 113.0022575 -236.12998274 110.45775504 -236.16162109 107.91259766 C-236.39644531 71.58791059 -224.63652289 36.64112585 -199.84912109 9.77001953 C-198.97384766 8.81224609 -198.09857422 7.85447266 -197.19677734 6.86767578 C-147.59728935 -45.06247832 -53.3008391 -46.01731367 0 0 Z M-143.23583984 41.81689453 C-153.05276534 53.70179223 -160.84912109 70.14900326 -160.84912109 85.77001953 C-117.28912109 85.77001953 -73.72912109 85.77001953 -28.84912109 85.77001953 C-31.03436094 63.91762107 -37.65257954 46.98591544 -54.72412109 32.45751953 C-81.04087374 12.40666037 -121.11714825 18.37847193 -143.23583984 41.81689453 Z " fill="#FFFFFF" transform="translate(1880.84912109375,138.22998046875)"/>
<path d="M0 0 C18.21600133 16.22458628 31.10808211 39.12063221 34.69384766 63.36352539 C34.70819868 65.69681459 34.70950041 68.03024456 34.69384766 70.36352539 C27.35175911 70.79854995 20.00919305 71.22474116 12.66625977 71.64526367 C10.17688844 71.7888164 7.68762589 71.93427032 5.19848633 72.08178711 C-9.31935879 72.94076205 -23.76118594 73.60584801 -38.30615234 73.36352539 C-38.80393188 71.67573975 -38.80393188 71.67573975 -39.31176758 69.95385742 C-44.5869087 52.17722361 -52.60305411 37.74334332 -69.30615234 28.36352539 C-86.1265561 20.10784166 -104.69100862 18.67625562 -122.67724609 24.09790039 C-131.48127208 27.16841107 -138.44456499 31.0985978 -145.30615234 37.36352539 C-145.96615234 37.36352539 -146.62615234 37.36352539 -147.30615234 37.36352539 C-147.57041016 37.94489258 -147.83466797 38.52625977 -148.10693359 39.12524414 C-149.35287586 41.45073248 -150.77380397 43.18068643 -152.49365234 45.17602539 C-170.60041849 68.2244298 -171.63277549 101.91897705 -168.84130859 129.82836914 C-166.01346487 152.16990931 -157.53701638 172.45609607 -139.99365234 187.17602539 C-125.76688749 197.6368819 -106.36913761 200.51101856 -89.13818359 198.05444336 C-72.13735913 194.97873967 -58.2198648 186.94559703 -47.89990234 172.92602539 C-41.97113132 163.39349158 -39.28045622 153.2788753 -37.30615234 142.36352539 C-24.08516429 142.2324996 -10.92104926 142.56003294 2.28613281 143.16308594 C5.35020664 143.30245172 8.41454972 143.43398941 11.47900391 143.56469727 C13.45949288 143.65213089 15.43996246 143.74000529 17.42041016 143.82836914 C18.3205484 143.86695541 19.22068665 143.90554169 20.14810181 143.94529724 C25.69996206 144.20361943 31.17579948 144.69620543 36.69384766 145.36352539 C35.26800223 174.35571564 20.25663709 201.37337773 -0.88818359 220.72680664 C-33.9123929 248.72243942 -75.10538082 256.87538414 -117.4609375 254.16137695 C-154.14416463 250.88332766 -188.70183931 235.13325237 -212.69726562 206.71606445 C-233.15637669 181.47718908 -243.41500478 149.67731112 -244.30615234 117.36352539 C-244.34611328 116.22657227 -244.38607422 115.08961914 -244.42724609 113.91821289 C-245.1720372 73.34900325 -233.47693991 35.13599653 -205.30615234 5.36352539 C-204.53529297 4.52821289 -203.76443359 3.69290039 -202.97021484 2.83227539 C-151.97776414 -50.635537 -53.705781 -46.00228209 0 0 Z " fill="#FFFFFF" transform="translate(1586.30615234375,140.636474609375)"/>
<path d="M0 0 C23.43 0 46.86 0 71 0 C71 122.43 71 244.86 71 371 C47.57 371 24.14 371 0 371 C0 248.57 0 126.14 0 0 Z " fill="#FFFFFF" transform="translate(1964,18)"/>
<path d="M0 0 C21.78 0 43.56 0 66 0 C66.99 23.76 66.99 23.76 68 48 C70.31 42.72 72.62 37.44 75 32 C85.32952941 16.25976471 97.78184297 5.90011191 116.41015625 1.42041016 C125.9882612 -0.47149935 135.5349915 -0.22206419 145.25 -0.125 C154.03625 -0.063125 154.03625 -0.063125 163 0 C163 19.14 163 38.28 163 58 C143 58.3125 143 58.3125 136.796875 58.38793945 C119.02946436 58.69110514 101.0037874 59.89255881 87 72 C86.38125 72.52464844 85.7625 73.04929687 85.125 73.58984375 C75.65030134 82.26817765 72.54746201 94.63732768 71 107 C70.90415051 109.4305623 70.85436619 111.86322011 70.84178162 114.29563904 C70.83684364 114.99582391 70.83190566 115.69600879 70.82681805 116.41741139 C70.81155713 118.74498754 70.80311367 121.07253637 70.79467773 123.40014648 C70.78509022 125.07603695 70.77507963 126.75192505 70.76467896 128.42781067 C70.73771843 132.96442631 70.71666111 137.50105226 70.69667697 142.03770328 C70.67476262 146.7836231 70.64740066 151.52951147 70.62062073 156.27540588 C70.57076738 165.25664483 70.52580133 174.23790131 70.48259836 183.21917444 C70.433163 193.44649065 70.37826828 203.67377529 70.32291877 213.90106094 C70.2092117 234.93401258 70.10306886 255.96699335 70 277 C46.9 277 23.8 277 0 277 C0 185.59 0 94.18 0 0 Z " fill="#FFFFFF" transform="translate(1172,112)"/>
</svg>
