<?xml version="1.0" encoding="UTF-8"?>
<svg version="1.1" xmlns="http://www.w3.org/2000/svg" width="2048" height="407">
<path d="M0 0 C0.66 0 1.32 0 2 0 C2.3810791 0.69222656 2.7621582 1.38445313 3.15478516 2.09765625 C10.51003477 15.44127013 17.94087264 28.72569152 25.65673828 41.86523438 C30.16290756 49.54399892 34.59377647 57.26368602 39 65 C43.95335401 73.69426161 48.94387919 82.36492464 54 91 C59.00754135 99.55544069 63.96154911 108.14024336 68.875 116.75 C69.20788025 117.3332605 69.5407605 117.916521 69.88372803 118.51745605 C72.59800516 123.27436898 75.30942831 128.03290718 78.02075195 132.79150391 C80.38751432 136.94508974 82.75538194 141.09804261 85.125 145.25 C85.62456207 146.12537415 85.62456207 146.12537415 86.13421631 147.01843262 C90.71285351 155.03778468 95.33550365 163.03026862 100 171 C105.00736075 179.55554751 109.96154808 188.14024155 114.875 196.75 C115.37432037 197.62489075 115.37432037 197.62489075 115.88372803 198.51745605 C118.59800516 203.27436898 121.30942831 208.03290718 124.02075195 212.79150391 C126.38751432 216.94508974 128.75538194 221.09804261 131.125 225.25 C131.62456207 226.12537415 131.62456207 226.12537415 132.13421631 227.01843262 C136.71285351 235.03778468 141.33550365 243.03026862 146 251 C151.00736075 259.55554751 155.96154808 268.14024155 160.875 276.75 C161.20788025 277.3332605 161.5407605 277.916521 161.88372803 278.51745605 C164.59800516 283.27436898 167.30942831 288.03290718 170.02075195 292.79150391 C172.38751432 296.94508974 174.75538194 301.09804261 177.125 305.25 C177.62456207 306.12537415 177.62456207 306.12537415 178.13421631 307.01843262 C182.71285351 315.03778468 187.33550365 323.03026862 192 331 C198.7142445 342.47191917 205.31461846 354.00734242 211.89428711 365.55670166 C214.39762874 369.94892562 216.91201804 374.33472647 219.4296875 378.71875 C220.51873897 380.61713422 221.60758699 382.51563496 222.6963501 384.41418457 C223.38875523 385.6205891 224.08188936 386.82657557 224.77581787 388.03210449 C225.74319414 389.71294814 226.70758254 391.39551029 227.671875 393.078125 C228.2194043 394.03106445 228.76693359 394.98400391 229.33105469 395.96582031 C231.3239621 399.5889703 233.15073551 403.30147102 235 407 C80.56 407 -73.88 407 -233 407 C-231.57788545 402.73365634 -230.51358575 399.85545362 -228.3046875 396.1484375 C-227.49076538 394.77002686 -227.49076538 394.77002686 -226.66040039 393.36376953 C-226.07121826 392.37747559 -225.48203613 391.39118164 -224.875 390.375 C-223.59906743 388.21424569 -222.32437705 386.05275748 -221.05078125 383.890625 C-220.3851416 382.76205078 -219.71950195 381.63347656 -219.03369141 380.47070312 C-215.65487849 374.72054844 -212.36242009 368.92063431 -209.0625 363.125 C-207.71017662 360.75229532 -206.35721788 358.37995365 -205.00390625 356.0078125 C-204.50277313 355.12934158 -204.50277313 355.12934158 -203.99151611 354.23312378 C-199.90319059 347.07142749 -195.77355318 339.93363641 -191.64697266 332.79394531 C-187.3926282 325.42778163 -183.16650945 318.04587811 -178.953125 310.65625 C-173.68135856 301.4103827 -168.3770493 292.18518608 -163 283 C-157.99254896 274.44450589 -153.03845141 265.85975755 -148.125 257.25 C-147.79211975 256.6667395 -147.4592395 256.083479 -147.11627197 255.48254395 C-144.74261615 251.32258771 -142.371073 247.16142877 -140 243 C-137.29310624 238.24917808 -134.58529654 233.49888166 -131.875 228.75 C-131.37543793 227.87462585 -131.37543793 227.87462585 -130.86578369 226.98156738 C-125.72566113 217.97878977 -120.52066225 209.01538309 -115.28417969 200.06835938 C-110.85328433 192.48755027 -106.47715221 184.87620249 -102.125 177.25 C-101.79211975 176.6667395 -101.4592395 176.083479 -101.11627197 175.48254395 C-98.74261615 171.32258771 -96.371073 167.16142877 -94 163 C-91.29310624 158.24917808 -88.58529654 153.49888166 -85.875 148.75 C-85.54195862 148.16641724 -85.20891724 147.58283447 -84.86578369 146.98156738 C-79.72566113 137.97878977 -74.52066225 129.01538309 -69.28417969 120.06835938 C-64.85328433 112.48755027 -60.47715221 104.87620249 -56.125 97.25 C-55.79211975 96.6667395 -55.4592395 96.083479 -55.11627197 95.48254395 C-52.74261615 91.32258771 -50.371073 87.16142877 -48 83 C-45.29310624 78.24917808 -42.58529654 73.49888166 -39.875 68.75 C-39.54195862 68.16641724 -39.20891724 67.58283447 -38.86578369 66.98156738 C-33.73607341 57.99702657 -28.54403356 49.05032562 -23.31494141 40.12329102 C-17.85580053 30.78898844 -12.49634301 21.39859299 -7.15234375 11.99804688 C-6.50910156 10.86818359 -5.86585938 9.73832031 -5.203125 8.57421875 C-4.63239258 7.56963623 -4.06166016 6.56505371 -3.47363281 5.5300293 C-2.378021 3.6490112 -1.20748873 1.81123309 0 0 Z " fill="#000000" transform="translate(233,0)"/>
<path d="M0 0 C28.05 0 56.1 0 85 0 C90.80913217 11.03735112 96.60284148 22.04995482 102.16194153 33.21057129 C102.57318583 34.03555618 102.98443012 34.86054108 103.40813637 35.71052551 C103.83354902 36.56402084 104.25896168 37.41751617 104.69726562 38.296875 C105.61828372 40.1408372 106.53948804 41.9847064 107.46086121 43.82849121 C109.42348618 47.75686909 111.38487356 51.68586131 113.34526062 55.61535645 C116.45500817 61.84854028 119.5679257 68.08013772 122.68127441 74.31152344 C129.85005963 88.66106113 137.01480444 103.01261521 144.17949677 117.36419678 C150.75388392 130.53323353 157.32915711 143.70182596 163.90768766 156.86879349 C166.99263689 163.04362698 170.0756427 169.2194254 173.1570816 175.39601135 C175.08467351 179.25873587 177.01398117 183.12060163 178.94371986 186.98225403 C179.82715343 188.75096858 180.70990589 190.52002356 181.59186363 192.28947449 C186.89079967 202.9195117 192.31007943 213.47598033 197.87222862 223.97086048 C200.36097671 228.66926927 202.76851048 233.40583941 205.1328125 238.16796875 C205.54038788 238.98453445 205.94796326 239.80110016 206.3678894 240.64241028 C207.62220611 243.15647566 208.87368193 245.67194105 210.125 248.1875 C210.99459971 249.93173634 211.86439073 251.67587731 212.734375 253.41992188 C214.82510815 257.61219293 216.91330254 261.80571882 219 266 C220.99939693 263.44013253 222.65636512 260.93617545 224.10597324 258.03135586 C224.69611803 256.85611438 224.69611803 256.85611438 225.29818493 255.65713066 C225.72230237 254.80238798 226.1464198 253.94764531 226.58338928 253.06700134 C227.04033832 252.15410656 227.49728735 251.24121178 227.96808332 250.30065352 C229.50083967 247.23609463 231.02785479 244.16871082 232.55493164 241.10131836 C233.65208582 238.90480892 234.74959828 236.70847841 235.84744263 234.51231384 C238.21352257 229.77721752 240.57716921 225.04091863 242.93867683 220.30354118 C246.36347724 213.4332146 249.79310787 206.56530814 253.2239806 199.6980123 C258.80422486 188.52826404 264.38118969 177.35688193 269.95581055 166.18432617 C270.28943041 165.51569314 270.62305027 164.8470601 270.96677982 164.15816546 C271.30077016 163.48878925 271.6347605 162.81941304 271.97887176 162.1297527 C272.65445192 160.77577132 273.33003308 159.42179044 274.00561523 158.06781006 C274.34034966 157.39694588 274.67508409 156.72608169 275.01996199 156.03488829 C278.72311018 148.61330869 282.42720258 141.19220047 286.1315918 133.77124023 C286.46268009 133.10797279 286.79376839 132.44470534 287.13488967 131.76133888 C292.68199905 120.64901194 298.23077959 109.53751997 303.78040212 98.42644793 C307.19500869 91.5896954 310.60796021 84.75212138 314.01868062 77.91342927 C316.6443418 72.64902391 319.27204846 67.38564127 321.90044022 62.12259865 C322.9693218 59.98140082 324.03750773 57.83985554 325.10489845 55.69791412 C331.57726321 42.71077518 338.19215497 29.81430958 345 17 C347.97 11.39 350.94 5.78 354 0 C382.05 0 410.1 0 439 0 C437.29400812 4.2649797 435.38832142 8.29830735 433.2890625 12.37109375 C432.92508362 13.08090897 432.56110474 13.79072418 432.18609619 14.52204895 C431.0018188 16.8286277 429.81370372 19.1331996 428.625 21.4375 C428.21783752 22.22854126 427.81067505 23.01958252 427.39117432 23.83459473 C422.2149806 33.88688347 416.95300447 43.87921019 411.47900391 53.77319336 C407.16602182 61.60442737 403.07940682 69.54558053 399 77.5 C393.9665016 87.31426638 388.83884677 97.05780627 383.5078125 106.71484375 C379.37089212 114.24158568 375.42497368 121.86155893 371.5 129.5 C367.12374211 138.016691 362.69056032 146.49138254 358.0625 154.875 C352.84249864 164.33358557 347.88885671 173.91751055 342.95925903 183.52923584 C338.2946443 192.61909239 333.51833189 201.63027276 328.578125 210.57421875 C324.23710911 218.47440089 320.11331752 226.47985704 316 234.5 C310.96644668 244.31423998 305.83884808 254.0578039 300.5078125 263.71484375 C296.37089212 271.24158568 292.42497368 278.86155893 288.5 286.5 C284.12373988 295.01669533 279.69041634 303.49129986 275.0625 311.875 C269.46728581 322.01722315 264.15143967 332.29542412 258.86938477 342.60302734 C253.99169431 352.11430578 249.0027198 361.55041815 244 371 C227.83 371 211.66 371 195 371 C188.33881351 358.91118007 181.80746754 346.7759607 175.5 334.5 C171.12381166 325.98327274 166.69055927 317.50861556 162.0625 309.125 C156.84285982 299.66706888 151.88961934 290.08378731 146.96026611 280.47277832 C142.27137827 271.33589759 137.47143588 262.27663795 132.5078125 253.28515625 C128.03025915 245.13866431 123.77858401 236.88049394 119.53045654 228.61315918 C115.47553539 220.72661281 111.34858425 212.88913622 107.0625 205.125 C101.84249864 195.66641443 96.88885671 186.08248945 91.95925903 176.47076416 C87.74285191 168.25432226 83.4656398 160.08477096 79 152 C73.79892278 142.58376405 68.86745955 133.04082051 63.95898438 123.47021484 C59.7426684 115.25395693 55.46554048 107.08459115 51 99 C46.16664416 90.24950137 41.56149482 81.39399868 37 72.5 C31.97365506 62.69981468 26.85632446 52.96843928 21.52978516 43.3269043 C16.47214025 34.12985379 11.68304259 24.79557589 6.89819336 15.45458984 C6.43154015 14.54568748 6.43154015 14.54568748 5.95545959 13.61842346 C5.10653513 11.96430565 4.25997734 10.30897384 3.41357422 8.65356445 C1.99542957 5.88657347 1.99542957 5.88657347 0 3 C0 2.01 0 1.02 0 0 Z " fill="#000000" transform="translate(460,18)"/>
<path d="M0 0 C0.72840088 -0.00979385 1.45680176 -0.01958771 2.20727539 -0.02967834 C18.53060553 -0.20392369 34.24035148 -0.04044187 50.1171875 4.23828125 C50.89078613 4.44195312 51.66438477 4.645625 52.46142578 4.85546875 C69.54410475 9.52322164 85.57297072 17.82958729 99.1171875 29.23828125 C100.0865625 30.03363281 101.0559375 30.82898438 102.0546875 31.6484375 C131.43149573 57.00888523 143.36723059 93.7387121 147.1171875 131.23828125 C147.1171875 141.79828125 147.1171875 152.35828125 147.1171875 163.23828125 C79.1371875 163.23828125 11.1571875 163.23828125 -58.8828125 163.23828125 C-55.67547666 182.59682007 -55.67547666 182.59682007 -48.8828125 200.23828125 C-48.38136719 201.23472656 -47.87992188 202.23117187 -47.36328125 203.2578125 C-39.22113445 218.41707879 -26.91245296 227.36663207 -10.671875 232.51171875 C8.43555903 237.4892856 28.87700543 235.08908028 45.9453125 225.34765625 C56.95772439 218.0241311 64.396069 208.52656929 71.1171875 197.23828125 C85.95807268 197.7066008 100.74820037 198.65382892 115.5546875 199.73828125 C116.9132637 199.83684921 116.9132637 199.83684921 118.29928589 199.93740845 C120.92499403 200.12872807 123.55042712 200.32341875 126.17578125 200.51953125 C126.9584436 200.57682907 127.74110596 200.63412689 128.54748535 200.69316101 C133.42833848 201.06431991 138.26430474 201.59650945 143.1171875 202.23828125 C142.52570673 207.42386604 140.88953562 211.57647548 138.6796875 216.23828125 C138.15169556 217.3521521 138.15169556 217.3521521 137.61303711 218.48852539 C122.37425872 249.55359334 93.2455984 270.69374022 61.17578125 281.92578125 C24.03346467 294.2796192 -20.24640668 292.49488885 -55.8828125 276.23828125 C-57.05070313 275.71492188 -58.21859375 275.1915625 -59.421875 274.65234375 C-90.39534805 260.02407377 -112.75682714 233.039932 -124.6328125 201.23828125 C-135.75257525 168.32827634 -137.25866454 131.7855372 -127.8828125 98.23828125 C-127.58165527 97.14555908 -127.58165527 97.14555908 -127.27441406 96.03076172 C-121.19715283 74.61052278 -110.13021652 56.38259138 -94.8828125 40.23828125 C-93.77873047 39.02011719 -93.77873047 39.02011719 -92.65234375 37.77734375 C-69.58140925 13.27655234 -33.1855229 0.37183005 0 0 Z M-38.8828125 73.23828125 C-39.45257812 73.81191406 -40.02234375 74.38554687 -40.609375 74.9765625 C-50.81991031 85.94634275 -57.8828125 103.26909322 -57.8828125 118.23828125 C-14.3228125 118.23828125 29.2371875 118.23828125 74.1171875 118.23828125 C72.20395362 99.1059424 67.24503186 82.95883641 53.1171875 69.23828125 C52.30701172 68.39716797 52.30701172 68.39716797 51.48046875 67.5390625 C40.06387935 56.58258754 23.50373947 52.68227405 8.14892578 52.89086914 C-10.20726093 53.56049647 -26.17030225 59.86822736 -38.8828125 73.23828125 Z " fill="#000000" transform="translate(986.8828125,105.76171875)"/>
<path d="M0 0 C0.77359863 0.20367187 1.54719727 0.40734375 2.34423828 0.6171875 C19.45000543 5.29124911 35.4112712 13.61539536 49 25 C49.845625 25.69480469 50.69125 26.38960937 51.5625 27.10546875 C62.47338843 36.46496523 71.00981522 47.46536161 78 60 C78.59425781 61.05316406 79.18851563 62.10632813 79.80078125 63.19140625 C95.92003525 93.46415156 97 125.15095139 97 159 C29.02 159 -38.96 159 -109 159 C-104.25383414 183.91737076 -99.42971159 204.98550618 -78.3671875 220.47265625 C-62.55952319 230.67199082 -42.10113793 232.73815968 -23.796875 229.34375 C-3.05467841 223.9489186 10.33445502 210.9130518 21 193 C35.84088518 193.46831955 50.63101287 194.41554767 65.4375 195.5 C66.7960762 195.59856796 66.7960762 195.59856796 68.18209839 195.6991272 C70.80780653 195.89044682 73.43323962 196.0851375 76.05859375 196.28125 C76.8412561 196.33854782 77.62391846 196.39584564 78.43029785 196.45487976 C83.31115098 196.82603866 88.14711724 197.3582282 93 198 C92.41184963 203.21983453 90.73452598 207.37812969 88.5 212.0625 C87.96596558 213.18241333 87.96596558 213.18241333 87.42114258 214.32495117 C72.1814553 245.39876984 43.15394741 266.44651514 11.05859375 277.6875 C-27.63487474 290.55726375 -73.42177869 287.98608424 -110 270 C-111.14210938 269.443125 -112.28421875 268.88625 -113.4609375 268.3125 C-135.33192886 257.09127878 -153.03747535 239.36854201 -165 218 C-165.33773438 217.39704102 -165.67546875 216.79408203 -166.0234375 216.17285156 C-176.8765247 196.49653087 -183.07594546 173.86489144 -183.203125 151.35546875 C-183.20882507 150.54620438 -183.21452515 149.73694 -183.22039795 148.90315247 C-183.22979274 147.19464398 -183.23635979 145.48611782 -183.24023438 143.77758789 C-183.24983132 141.23223797 -183.28086164 138.68773551 -183.3125 136.14257812 C-183.56631189 96.8807092 -169.71955107 61.00795816 -142.25 32.875 C-136.02072724 26.65160629 -129.49393372 21.66040654 -122 17 C-121.02546875 16.37609375 -120.0509375 15.7521875 -119.046875 15.109375 C-111.39644993 10.40456814 -103.40725075 7.05475318 -95 4 C-94.01 3.63003906 -93.02 3.26007813 -92 2.87890625 C-63.77506245 -6.76711629 -28.81500578 -7.76549127 0 0 Z M-89 69 C-89.5465625 69.52722656 -90.093125 70.05445313 -90.65625 70.59765625 C-100.95050683 81.30258822 -108 99.20793262 -108 114 C-64.44 114 -20.88 114 24 114 C22.08676612 94.86766115 17.12784436 78.72055516 3 65 C2.18982422 64.15888672 2.18982422 64.15888672 1.36328125 63.30078125 C-10.05330815 52.34430629 -26.61344803 48.4439928 -41.96826172 48.65258789 C-60.35050181 49.32316564 -76.25529568 55.64256951 -89 69 Z " fill="#000000" transform="translate(1828,110)"/>
<path d="M0 0 C0.79680176 0.19867676 1.59360352 0.39735352 2.41455078 0.60205078 C35.43616601 9.12067036 65.86398651 26.55018408 83.8984375 56.33203125 C90.16869814 67.08228105 94.27921209 77.85884966 97 90 C97.19851563 90.82242188 97.39703125 91.64484375 97.6015625 92.4921875 C98.10772228 95.67801673 98.02399318 98.77879852 98 102 C90.17562046 102.43337169 82.35088461 102.85982515 74.52587891 103.28173828 C71.87048437 103.42521881 69.2152594 103.57117103 66.56005859 103.71826172 C38.2607903 105.28393445 38.2607903 105.28393445 25 105 C24.72027344 103.91203125 24.44054688 102.8240625 24.15234375 101.703125 C19.62512034 84.80226284 12.06597834 70.89074807 -3.31054688 61.54223633 C-19.4782117 52.25540087 -38.38625741 50.06197459 -56.5625 54.5625 C-73.12387302 59.37665551 -85.51757299 68.67606226 -93.96630859 83.72070312 C-109.39247571 112.81592647 -110.38079865 150.88143399 -100.99926758 182.1027832 C-95.55334389 199.07227431 -85.96011113 213.71441266 -70.171875 222.58984375 C-51.82120601 231.83297628 -31.78703625 232.0070843 -12.2890625 226.19140625 C0.95269329 221.49204497 11.58437259 211.56524219 18.359375 199.46484375 C22.17967695 191.39672987 24.59930618 182.80281003 26 174 C40.51224007 173.87887775 54.9675082 174.15025562 69.46557617 174.79956055 C72.6193804 174.9400335 75.77348945 175.07100746 78.92773438 175.20117188 C80.95314886 175.28851082 82.97854055 175.3763806 85.00390625 175.46484375 C85.93715225 175.50343002 86.87039825 175.5420163 87.83192444 175.58177185 C91.9796487 175.77239976 95.95175279 175.99281338 100 177 C98.54329094 207.29954838 81.898188 234.14430781 60.02294922 254.25390625 C28.99113636 281.03878745 -13.21291917 288.2571227 -52.9765625 285.7265625 C-81.60918557 283.42271971 -109.97782683 273.82936739 -132 255 C-132.79664063 254.32453125 -133.59328125 253.6490625 -134.4140625 252.953125 C-162.76240969 228.20317482 -177.58506235 193.27053949 -180.625 156.125 C-183.07236501 115.67673109 -174.81128673 74.50972766 -148 43 C-147.26007813 42.10925781 -146.52015625 41.21851563 -145.7578125 40.30078125 C-124.01855538 15.04146649 -90.55017908 0.63350668 -57.84326172 -2.80151367 C-38.95184238 -4.12031188 -18.44181146 -4.65541759 0 0 Z " fill="#000000" transform="translate(1523,109)"/>
<path d="M0 0 C23.43 0 46.86 0 71 0 C71 122.43 71 244.86 71 371 C47.57 371 24.14 371 0 371 C0 248.57 0 126.14 0 0 Z " fill="#000000" transform="translate(1964,18)"/>
<path d="M0 0 C21.78 0 43.56 0 66 0 C66.99 23.76 66.99 23.76 68 48 C70.31 42.72 72.62 37.44 75 32 C85.57514637 14.84032853 98.84171031 5.90186617 118 1 C123.38575192 0.05892117 128.55213736 -0.13314998 133.99609375 -0.09765625 C135.10603699 -0.09614563 135.10603699 -0.09614563 136.23840332 -0.09460449 C138.97145158 -0.08941897 141.70447754 -0.07545815 144.4375 -0.0625 C153.6259375 -0.0315625 153.6259375 -0.0315625 163 0 C163 19.14 163 38.28 163 58 C142.4375 58.3125 142.4375 58.3125 136.04858398 58.38793945 C117.58334209 58.69391761 97.88464133 60.3022673 84 74 C71.61779996 88.37219648 70.7044276 105.84593743 70.68115234 123.96777344 C70.67183516 125.64440382 70.66166388 127.32102965 70.65071106 128.99765015 C70.62359857 133.51331483 70.60831779 138.02894865 70.59528303 142.54467297 C70.57956972 147.27723383 70.55280598 152.00973242 70.5272522 156.74224854 C70.48060878 165.68789866 70.44379514 174.63356069 70.41057932 183.57926965 C70.37225547 193.7704447 70.32287244 203.96155697 70.27259517 214.15267897 C70.16949021 235.10174524 70.08162011 256.05083824 70 277 C46.9 277 23.8 277 0 277 C0 185.59 0 94.18 0 0 Z " fill="#000000" transform="translate(1172,112)"/>
</svg>
